<svg width="120" height="120" viewBox="0 0 120 120" fill="none" xmlns="http://www.w3.org/2000/svg">
<rect width="120" height="120" rx="60" fill="#EAFFDC"/>
<path d="M51.3288 51.8593C54.4448 49.9479 57.1644 50.7182 58.7982 51.9451C59.4681 52.4482 59.803 52.6997 60.0001 52.6997C60.1972 52.6997 60.5321 52.4482 61.202 51.9451C62.8357 50.7182 65.5554 49.9479 68.6714 51.8593C72.7608 54.3677 73.6861 62.6432 64.2535 69.6249C62.4568 70.9547 61.5585 71.6196 60.0001 71.6196C58.4417 71.6196 57.5434 70.9547 55.7467 69.6249C46.3141 62.6432 47.2394 54.3677 51.3288 51.8593Z" stroke="#048F09" stroke-width="3.48592" stroke-linecap="round"/>
<path d="M83.2396 59.9998C83.2396 47.165 72.835 36.7604 60.0002 36.7604C47.1654 36.7604 36.7607 47.165 36.7607 59.9998C36.7607 72.8346 47.1654 83.2393 60.0002 83.2393C72.835 83.2393 83.2396 72.8346 83.2396 59.9998Z" stroke="#30A431" stroke-width="3.48592"/>
</svg>
